<?xml version="1.0" encoding="UTF-8"?>
<svg width="1200pt" height="1200pt" version="1.1" viewBox="0 0 1200 1200" xmlns="http://www.w3.org/2000/svg">
 <path d="m313.2 730.8c-13.199 14.398-31.199 24-51.602 24h-169.2c-34.801 0-62.398 27.602-62.398 62.398 0 34.801 27.602 62.398 62.398 62.398h169.2c56.398 0 109.2-24 146.4-67.199l60-69.602-82.801-96z"/>
 <path d="m703.2 469.2c13.199-14.398 31.199-24 51.602-24h159.6v72c0 28.801 32.398 45.602 55.199 28.801l186-134.4c19.199-14.398 19.199-43.199 0-56.398l-186-135.6c-22.801-16.801-55.199 0-55.199 28.801v72l-159.6-0.003906c-56.398 0-109.2 24-146.4 67.199l-60 69.602 82.801 96z"/>
 <path d="m1155.6 788.4-186-134.4c-22.801-16.801-55.199 0-55.199 28.801v72h-159.6c-19.199 0-38.398-8.3984-51.602-24l-295.2-343.2c-37.199-43.199-90-67.199-146.4-67.199l-169.2-0.003906c-34.801 0-62.398 27.602-62.398 62.398 0 34.801 27.602 62.398 62.398 62.398h169.2c19.199 0 38.398 8.3984 51.602 24l295.2 343.2c37.199 43.199 90 67.199 146.4 67.199h159.6v72c0 28.801 32.398 45.602 55.199 28.801l186-134.4c19.203-14.395 19.203-43.195 0.003906-57.598z"/>
</svg>
