<?xml version="1.0" encoding="UTF-8"?>
<svg width="1200pt" height="1200pt" version="1.1" viewBox="0 0 1200 1200" xmlns="http://www.w3.org/2000/svg">
 <path d="m866.4 398.4c-24-19.199-60-16.801-80.398 8.3984s-15.602 61.199 9.6016 81.602c32.398 26.398 52.801 67.199 52.801 111.6 0 48-22.801 90-58.801 116.4-22.801 16.801-26.398 50.398-8.3984 72l4.8008 4.8008c19.199 22.801 55.199 27.602 78 9.6016 60-46.801 98.398-121.2 98.398-202.8-0.003906-81.602-37.203-153.6-96.004-201.6z"/>
 <path d="m997.2 237.6c-24-19.199-58.801-14.398-79.199 8.3984-19.199 24-16.801 60 7.1992 79.199 79.199 66 130.8 164.4 130.8 274.8s-51.602 210-130.8 274.8c-24 19.199-26.398 55.199-7.1992 79.199s55.199 28.801 79.199 9.6016c105.6-85.199 174-216 174-362.4-1.1992-147.6-68.398-278.4-174-363.6z"/>
 <path d="m531.6 150-291.6 224.4h-142.8c-37.199 0-67.199 30-67.199 67.199v316.8c0 37.199 30 67.199 67.199 67.199l142.8 0.003906 292.8 224.4c51.602 39.602 124.8 3.6016 124.8-62.398v-776.4c0-63.598-74.402-100.8-126-61.199z"/>
</svg>
