<?xml version="1.0" encoding="UTF-8"?>
<svg width="1200pt" height="1200pt" version="1.1" viewBox="0 0 1200 1200" xmlns="http://www.w3.org/2000/svg">
 <path d="m239.39 350.02v-210h-98.391v45.891h39v164.11zm860.63-150h-700.03v99.984h700.03zm-817.31 452.9v47.062h-163.5v-37.172l78.609-73.5c7.5938-7.2188 12.703-13.312 15.328-18.328 2.5781-5.2031 3.8906-10.406 3.8906-15.562 0-6.8438-2.2969-12.141-6.8906-15.938s-11.297-5.6719-20.109-5.6719c-7.8281 0-15 1.7812-21.609 5.3906-6.375 3.375-11.719 8.3906-15.891 15l-44.109-24.609c8.2031-13.594 19.688-24.281 34.5-32.109 14.812-7.7812 32.297-11.672 52.5-11.672 15.984 0 30.094 2.5781 42.281 7.7812 12.422 5.2031 22.031 12.703 28.828 22.5 6.9844 9.6094 10.5 20.812 10.5 33.609 0 11.391-2.4844 22.219-7.5 32.391-4.8281 9.9844-14.203 21.422-28.219 34.219l-39.609 36.609zm-15.281 292.69c-9.1875-10.828-22.5-18-39.891-21.609l43.5-46.781v-37.219h-151.78v45.891h82.781l-37.5 40.5v37.5h24.891c21.422 0 32.109 6.7969 32.109 20.391 0 7.0312-3 12.422-9 16.219s-14.109 5.7188-24.281 5.7188c-10.031 0-20.203-1.5-30.609-4.5-10.219-3-19.406-7.3125-27.609-12.938l-21.609 44.719c10.594 6.6094 23.109 11.719 37.5 15.281 14.625 3.6094 29.297 5.4375 44.109 5.4375 20.203 0 37.125-3.2344 50.719-9.6094 13.781-6.6094 24-15.188 30.609-25.828 6.7969-10.594 10.172-22.078 10.172-34.5 0-15.188-4.6875-28.078-14.109-38.672zm132.56-45.609h700.03v99.984h-700.03zm700.03-350.02h-700.03v100.03h700.03z" fill-rule="evenodd"/>
</svg>
