<?xml version="1.0" encoding="UTF-8"?>
<svg width="1200pt" height="1200pt" version="1.1" viewBox="0 0 1200 1200" xmlns="http://www.w3.org/2000/svg">
 <path d="m1096.8 434.4c-40.801 0-73.199 32.398-73.199 73.199v252c0 63.602-51.602 115.2-115.2 115.2l-543.6 0.003906v-92.398c0-28.801-32.398-44.398-55.199-27.602l-217.2 165.6c-18 13.199-18 40.801 0 55.199l217.2 164.4c22.801 16.801 55.199 1.1992 55.199-27.602v-92.398h544.8c144 0 261.6-117.6 261.6-261.6v-252c-1.2031-39.598-33.602-72-74.402-72z"/>
 <path d="m175.2 692.4v-252c0-63.602 51.602-115.2 115.2-115.2h544.8v92.398c0 28.801 32.398 44.398 55.199 27.602l217.2-165.6c18-13.199 18-40.801 0-55.199l-217.2-164.4c-22.801-16.801-55.199-1.1992-55.199 27.602v92.398h-543.6c-144 0-261.6 117.6-261.6 261.6v252c0 40.801 32.398 73.199 73.199 73.199s72-33.602 72-74.402z"/>
</svg>
