<?xml version="1.0" encoding="UTF-8"?>
<svg width="1200pt" height="1200pt" version="1.1" viewBox="0 0 1200 1200" xmlns="http://www.w3.org/2000/svg">
 <path d="m427.2 30h-267.6c-25.199 0-46.801 20.398-46.801 46.801v1047.6c0 25.199 20.398 46.801 46.801 46.801h266.4c25.199 0 46.801-20.398 46.801-46.801v-1047.6c0-26.402-20.402-46.801-45.602-46.801z"/>
 <path d="m1040.4 30h-267.6c-25.199 0-46.801 20.398-46.801 46.801v1047.6c0 25.199 20.398 46.801 46.801 46.801h266.4c25.199 0 46.801-20.398 46.801-46.801v-1047.6c0-26.402-20.398-46.801-45.602-46.801z"/>
</svg>
