<?xml version="1.0" encoding="UTF-8"?>
<svg width="1200pt" height="1200pt" version="1.1" viewBox="0 0 1200 1200" xmlns="http://www.w3.org/2000/svg">
 <path d="m519.6 162-285.6 218.4h-138c-36 0-66 28.801-66 66v308.4c0 36 28.801 66 66 66h139.2l284.4 218.4c49.199 38.398 122.4 2.3984 122.4-60l0.003906-757.2c-1.1992-63.602-73.199-98.398-122.4-60z"/>
 <path d="m1071.6 600 86.398-86.398c14.398-14.398 14.398-38.398 0-54l-40.801-40.801c-14.398-14.398-38.398-14.398-54 0l-86.398 86.398-86.398-86.398c-14.398-14.398-38.398-14.398-54 0l-40.801 40.801c-14.398 14.398-14.398 38.398 0 54l86.398 86.398-86.398 86.398c-14.398 14.398-14.398 38.398 0 54l40.801 40.801c14.398 14.398 38.398 14.398 54 0l86.398-86.398 86.398 86.398c14.398 14.398 38.398 14.398 54 0l40.801-40.801c14.398-14.398 14.398-38.398 0-54z"/>
</svg>
